:SAMPLES-PER-SECOND 30
:FULLY-SPECIFIED
:DEGREES
61
root  34.78800556 36.55072911 -14.34546193 9.367706299 -5.823510647 3.462588787
lowerback  -7.878349781 -1.045750022 -0.8954254389
upperback  -4.001649857 -0.8742319942 -3.3557899
thorax  0.2426459938 -0.2759220004 -3.0286901
lowerneck  -6.011940002 -14.07509995 -10.92329979
upperneck  10.6807003 -19.14129829 10.80700016
head  6.317470074 -9.076439857 3.411469936
lclavicle  0 -4.497500157e-015 -2.743230041e-014
lhumerus  -48.75989914 29.9612999 63.12630081
lradius  0.006620147731 -6.507048965e-006 30.1882
lwrist  4.824992743e-007 -3.790274832e-007 -28.36459923
lhand  -3.511775976e-031 -36.8227005 -10.74269962
lfingers  90 7.125020027 -90
lthumb  94.79417419 -25.58008575 100.9925766
rclavicle  0 -4.497500157e-015 -2.743230041e-014
rhumerus  -53.1908989 -25.51639938 -53.00260162
rradius  -5.16745672e-007 2.214343908e-008 108.9440002
rwrist  -2.867388866e-005 0.1017204151 -176.9420013
rhand  -2.995113685e-031 0.4461149871 -8.024479866
rfingers  -90 -7.125020027 -90
rthumb  -86.14343262 -7.845599651 -63.71784592
rfemur  -11.48920822 15.2024765 12.50948238
rtibia  -0.2609876096 -1.552580357 18.75024986
rfoot  1.39700377 -22.78570938 -34.13589478
rtoes  4.091099262 19.59426689 -102.0398254
lfemur  -5.665288925 -15.78447819 -21.7221756
ltibia  4.922849178 -0.6346917748 10.92788124
lfoot  0.7216616273 -22.36091614 36.82612991
ltoes  -8.600494385 -18.12509727 -115.9277267
62
root  34.78699331 36.55179842 -14.34157514 9.384507179 -5.861694813 3.454627752
lowerback  -7.902480602 -1.021240115 -0.9105501771
upperback  -3.986109972 -0.8373140097 -3.395930052
thorax  0.2732959986 -0.2567769885 -3.059400082
lowerneck  -5.958489895 -14.12609959 -10.94439983
upperneck  10.62059975 -19.21770096 10.87030029
head  6.306580067 -9.113080025 3.428339958
lclavicle  0 -4.497500157e-015 -2.743230041e-014
lhumerus  -48.65650177 29.8635006 63.17599869
lradius  0.006620147731 -6.507048965e-006 30.17219734
lwrist  4.824992743e-007 -3.790274832e-007 -28.36860085
lhand  -3.513342771e-031 -36.86009979 -10.71850014
lfingers  90 7.125020027 -90
lthumb  94.80658722 -25.55498505 101.0303116
rclavicle  0 -4.497500157e-015 -2.743230041e-014
rhumerus  -52.50790024 -25.62189865 -52.43650436
rradius  -5.16745672e-007 2.214343908e-008 110.4309998
rwrist  -2.867388866e-005 0.1017204151 -177.1920013
rhand  -2.986042784e-031 0.5684530139 -8.159930229
rfingers  -90 -7.125020027 -90
rthumb  -86.18038177 -7.73182869 -63.60709
rfemur  -11.45996189 15.16229439 12.49533844
rtibia  -0.2405343801 -1.600767493 18.66337776
rfoot  1.434767962 -22.85408783 -34.07741547
rtoes  4.098838806 19.59233856 -102.0629044
lfemur  -5.706581116 -15.78714848 -21.70848274
ltibia  4.898609638 -0.6321460605 10.99396515
lfoot  0.7492908835 -22.40674591 36.86352539
ltoes  -8.551522255 -18.14764404 -115.770401
63
root  34.78446119 36.54249597 -14.3515309 9.518806458 -6.017132759 3.475780964
lowerback  -7.933190346 -0.9214280248 -0.7522987127
upperback  -3.909830093 -0.7152839899 -3.490400076
thorax  0.3708609939 -0.1998029947 -3.237970114
lowerneck  -5.957650185 -14.20269966 -10.91969967
upperneck  10.62370014 -19.33139992 10.91289997
head  6.322000027 -9.162730217 3.422739983
lclavicle  0 -4.497500157e-015 -2.743230041e-014
lhumerus  -48.51739883 29.73800087 63.1957016
lradius  0.006620147731 -6.507048965e-006 30.16239929
lwrist  4.824992743e-007 -3.790274832e-007 -28.3885994
lhand  -3.510720762e-031 -36.85240173 -10.75119972
lfingers  90 7.125020027 -90
lthumb  94.80989075 -25.5873127 101.0250626
rclavicle  0 -4.497500157e-015 -2.743230041e-014
rhumerus  -51.85070038 -25.87619781 -51.74079895
rradius  -5.16745672e-007 2.214343908e-008 111.7300034
rwrist  -2.867388866e-005 0.1017204151 -177.8500061
rhand  -2.990934596e-031 0.780978024 -8.086440086
rfingers  -90 -7.125020027 -90
rthumb  -86.10597229 -7.810948849 -63.39585495
rfemur  -11.73416805 15.22759533 12.46365261
rtibia  -0.3035739362 -1.587973714 18.82458305
rfoot  1.416827798 -22.77246284 -33.97652054
rtoes  4.113641739 19.58935165 -102.107048
lfemur  -5.936597824 -15.86122894 -21.64694977
ltibia  4.842139721 -0.6631156206 11.12121296
lfoot  0.8123270869 -22.3547554 37.06951904
ltoes  -8.578738213 -18.13513374 -115.857811
64
root  34.78363518 36.54990008 -14.35398793 9.587029457 -6.111350536 3.469472885
lowerback  -7.862509727 -0.8834779263 -0.7569049001
upperback  -3.924839973 -0.6653479934 -3.519730091
thorax  0.3185429871 -0.1747840047 -3.260859966
lowerneck  -5.893970013 -14.25440025 -10.92570019
upperneck  10.60289955 -19.40390015 10.90139961
head  6.312069893 -9.201439857 3.415580034
lclavicle  0 -4.497500157e-015 -2.743230041e-014
lhumerus  -48.50960159 29.70689964 63.16680145
lradius  0.006620147731 -6.507048965e-006 30.12809944
lwrist  4.824992743e-007 -3.790274832e-007 -28.46319962
lhand  -3.505795077e-031 -36.85160065 -10.81070042
lfingers  90 7.125020027 -90
lthumb  94.8221283 -25.64578056 101.0296326
rclavicle  0 -4.497500157e-015 -2.743230041e-014
rhumerus  -51.24369812 -25.99189758 -51.0347023
rradius  -5.16745672e-007 2.214343908e-008 113.0879974
rwrist  -2.867388866e-005 0.1017204151 -178.2039948
rhand  -2.997641028e-031 0.8987749815 -7.985960007
rfingers  -90 -7.125020027 -90
rthumb  -86.03725433 -7.908136368 -63.27498245
rfemur  -11.80168247 15.23860741 12.43913841
rtibia  -0.2994602323 -1.639144897 18.78835869
rfoot  1.453522444 -22.83543396 -33.87699127
rtoes  4.143878937 19.58321762 -102.1972504
lfemur  -6.03902626 -15.87274647 -21.60749435
ltibia  4.814016342 -0.6679140329 11.1882906
lfoot  0.8585578799 -22.3576889 37.19224167
ltoes  -8.616026878 -18.11791229 -115.9776611
65
root  34.78298337 36.54913715 -14.34640659 9.548356056 -6.128608227 3.481205463
lowerback  -7.873399734 -0.9174979925 -0.9000564218
upperback  -3.957459927 -0.7000020146 -3.465080023
thorax  0.2920930088 -0.1890729964 -3.125969887
lowerneck  -5.865660191 -14.28499985 -10.94830036
upperneck  10.57610035 -19.4414978 10.8767004
head  6.302559853 -9.224490166 3.408800125
lclavicle  0 -4.497500157e-015 -2.743230041e-014
lhumerus  -48.55939865 29.83180046 63.13589859
lradius  0.006620147731 -6.507048965e-006 30.14440155
lwrist  4.824992743e-007 -3.790274832e-007 -28.50709724
lhand  -3.505069867e-031 -36.85820007 -10.81849957
lfingers  90 7.125020027 -90
lthumb  94.82693481 -25.6531868 101.0375061
rclavicle  0 -4.497500157e-015 -2.743230041e-014
rhumerus  -50.3506012 -26.05360222 -50.36320114
rradius  -5.16745672e-007 2.214343908e-008 114.2020035
rwrist  -2.867388866e-005 0.1017204151 -178.7220001
rhand  -2.995263329e-031 0.784792006 -8.021730423
rfingers  -90 -7.125020027 -90
rthumb  -86.07594299 -7.86908102 -63.38810349
rfemur  -11.76786613 15.24604702 12.44599056
rtibia  -0.3073135018 -1.599645734 18.80246162
rfoot  1.471406102 -22.74751663 -33.84622955
rtoes  4.168925285 19.57810211 -102.2719879
lfemur  -5.857164383 -15.8557148 -21.71152878
ltibia  4.922511578 -0.6925742626 10.99619293
lfoot  0.8347004652 -22.24177742 37.16797256
ltoes  -8.610946655 -18.12026405 -115.9613266
66
root  34.78114211 36.55038368 -14.34036015 9.536235809 -6.152374744 3.499571323
lowerback  -7.930260181 -0.9381620288 -0.9975400567
upperback  -3.948750019 -0.7196570039 -3.428489923
thorax  0.3336339891 -0.1973270029 -3.035300016
lowerneck  -5.853250027 -14.30840015 -10.97939968
upperneck  10.53909969 -19.47210121 10.89420033
head  6.297029972 -9.241140366 3.409781456
lclavicle  0 -4.497500157e-015 -2.743230041e-014
lhumerus  -48.55599976 29.95409966 63.11059952
lradius  0.006620147731 -6.507048965e-006 30.1291008
lwrist  4.824992743e-007 -3.790274832e-007 -28.66259766
lhand  -3.505874185e-031 -36.86589813 -10.80770016
lfingers  90 7.125020027 -90
lthumb  94.82822418 -25.64226151 101.0446777
rclavicle  0 -4.497500157e-015 -2.743230041e-014
rhumerus  -49.36650085 -26.19069862 -49.6774025
rradius  -5.16745672e-007 2.214343908e-008 115.2060013
rwrist  -2.867388866e-005 0.1017204151 -179.0399933
rhand  -2.98352908e-031 0.9658859968 -8.196749687
rfingers  -90 -7.125020027 -90
rthumb  -86.1198349 -7.72416687 -63.22275543
rfemur  -11.77328682 15.30612183 12.44269371
rtibia  -0.3244085312 -1.571964622 18.84220695
rfoot  1.456979871 -22.69190025 -33.87393188
rtoes  4.16977644 19.57575035 -102.2745285
lfemur  -5.733623981 -15.84746838 -21.80105972
ltibia  5.023168087 -0.7341024876 10.82632923
lfoot  0.7857120037 -22.07035828 37.09848022
ltoes  -8.602015495 -18.12439537 -115.9326172
67
root  34.77753767 36.55818128 -14.33741051 9.550670624 -6.182983398 3.501592636
lowerback  -7.968480587 -0.9395110011 -1.067759633
upperback  -3.936969995 -0.7140340209 -3.431770086
thorax  0.3681870103 -0.1931129992 -2.999200106
lowerneck  -5.784589767 -14.35429955 -10.95470047
upperneck  10.46860027 -19.53669739 10.88539982
head  6.266940117 -9.276619911 3.412294149
lclavicle  0 -4.497500157e-015 -2.743230041e-014
lhumerus  -48.51309967 29.98320007 63.09170151
lradius  0.006620147731 -6.507048965e-006 30.1053009
lwrist  4.824992743e-007 -3.790274832e-007 -28.75079918
lhand  -3.501885194e-031 -36.87279892 -10.85480022
lfingers  90 7.125020027 -90
lthumb  94.84152222 -25.68831825 101.0564346
rclavicle  0 -4.497500157e-015 -2.743230041e-014
rhumerus  -48.36360168 -26.37990189 -48.96889877
rradius  -5.16745672e-007 2.214343908e-008 116.1719971
rwrist  -2.867388866e-005 0.1017204151 -179.3990021
rhand  -2.990227347e-031 1.152750015 -8.096119881
rfingers  -90 -7.125020027 -90
rthumb  -86.03717804 -7.825939655 -63.034832
rfemur  -11.72350407 15.27311707 12.41596603
rtibia  -0.2931954861 -1.652080297 18.74316406
rfoot  1.504582167 -22.83522797 -33.78943634
rtoes  4.170024872 19.57460976 -102.2752686
lfemur  -5.758234978 -15.8290081 -21.7908535
ltibia  5.012427807 -0.7359827757 10.84109402
lfoot  0.7806611657 -22.07243729 37.07778168
ltoes  -8.56966877 -18.13930893 -115.8286743
